<?xml version="1.0" standalone="no"?><!DOCTYPE svg PUBLIC "-//W3C//DTD SVG 1.1//EN" "http://www.w3.org/Graphics/SVG/1.1/DTD/svg11.dtd"><svg t="1665968061417" class="icon" viewBox="0 0 1024 1024" version="1.1" xmlns="http://www.w3.org/2000/svg" p-id="2591" xmlns:xlink="http://www.w3.org/1999/xlink" width="200" height="200"><path d="M256 448 128 448C92.608 448 64 476.608 64 512l0 320c0 35.392 28.608 64 64 64l128 0c35.392 0 64-28.608 64-64L320 512C320 476.608 291.392 448 256 448zM256 832 128 832 128 512l128 0L256 832zM896 320l-128 0c-35.392 0-64 28.608-64 64l0 448c0 35.392 28.608 64 64 64l128 0c35.392 0 64-28.608 64-64L960 384C960 348.608 931.392 320 896 320zM896 832l-128 0L768 384l128 0L896 832zM576 64 448 64C412.608 64 384 92.608 384 128l0 704c0 35.392 28.608 64 64 64l128 0c35.392 0 64-28.608 64-64L640 128C640 92.608 611.392 64 576 64zM576 832 448 832 448 128l128 0L576 832z" p-id="2592"></path></svg>