<?xml version="1.0" standalone="no"?><!DOCTYPE svg PUBLIC "-//W3C//DTD SVG 1.1//EN" "http://www.w3.org/Graphics/SVG/1.1/DTD/svg11.dtd"><svg class="icon" width="200px" height="200.00px" viewBox="0 0 1024 1024" version="1.1" xmlns="http://www.w3.org/2000/svg"><path fill="#333333" d="M666.99 393.55H277.01c-16.57 0-30-13.43-30-30s13.43-30 30-30h389.98c16.57 0 30 13.43 30 30s-13.43 30-30 30z m-60.88 118.57c0-16.57-13.43-30-30-30h-299.1c-16.57 0-30 13.43-30 30s13.43 30 30 30h299.1c16.57 0 30-13.43 30-30zM436.44 660.69c0-16.57-13.43-30-30-30H277c-16.57 0-30 13.43-30 30s13.43 30 30 30h129.44c16.57 0 30-13.43 30-30z m283.04 152.32l240.7-240.7c11.72-11.72 11.72-30.71 0-42.43-11.71-11.72-30.71-11.72-42.43 0L698.26 749.37 576.05 627.16c-11.71-11.72-30.71-11.72-42.43 0-11.72 11.72-11.72 30.71 0 42.43l143.42 143.42c5.63 5.63 13.26 8.79 21.21 8.79s15.59-3.16 21.21-8.79z m87.81-215.09V209.59c0-23.21-18.88-42.09-42.09-42.09h-91.49v0.39c0 29.72-24.18 53.89-53.89 53.89H324.17c-29.72 0-53.89-24.18-53.89-53.89v-0.39h-91.49c-23.21 0-42.09 18.88-42.09 42.09v641.02c0 23.21 18.88 42.09 42.09 42.09h586.42c23.21 0 42.09-18.88 42.09-42.09v-82.98l60-60v142.98c0 56.29-45.8 102.09-102.09 102.09H178.79c-56.29 0-102.09-45.8-102.09-102.09V209.59c0-56.29 45.8-102.09 102.09-102.09h91.49v-0.39c0-29.72 24.18-53.89 53.89-53.89h295.66c29.72 0 53.89 24.18 53.89 53.89v0.39h91.49c56.29 0 102.09 45.8 102.09 102.09v328.34l-60 60zM613.72 113.21H330.28v48.57h283.45v-48.57z" /></svg>