<?xml version="1.0" standalone="no"?><!DOCTYPE svg PUBLIC "-//W3C//DTD SVG 1.1//EN" "http://www.w3.org/Graphics/SVG/1.1/DTD/svg11.dtd"><svg class="icon" width="200px" height="200.00px" viewBox="0 0 1024 1024" version="1.1" xmlns="http://www.w3.org/2000/svg"><path fill="#333333" d="M114.11 276.65h474.9c13.49 54.81 63.05 95.59 121.96 95.59s108.47-40.78 121.96-95.59h76.86c16.57 0 30-13.43 30-30s-13.43-30-30-30h-76.86c-13.49-54.81-63.05-95.59-121.96-95.59s-108.47 40.78-121.96 95.59h-474.9c-16.57 0-30 13.43-30 30s13.43 30 30 30z m596.85-95.59c36.17 0 65.59 29.42 65.59 65.59s-29.42 65.59-65.59 65.59-65.59-29.42-65.59-65.59 29.42-65.59 65.59-65.59zM114.11 542h97.06c13.49 54.81 63.04 95.59 121.96 95.59S441.6 596.81 455.09 542h454.8c16.57 0 30-13.43 30-30s-13.43-30-30-30h-454.8c-13.49-54.81-63.04-95.59-121.96-95.59S224.66 427.19 211.17 482h-97.06c-16.57 0-30 13.43-30 30s13.43 30 30 30z m219.02-95.59c36.17 0 65.59 29.42 65.59 65.59s-29.42 65.59-65.59 65.59-65.59-29.42-65.59-65.59 29.42-65.59 65.59-65.59z m576.75 300.94H737.33c-13.49-54.81-63.05-95.59-121.96-95.59s-108.47 40.78-121.96 95.59h-379.3c-16.57 0-30 13.43-30 30s13.43 30 30 30h379.31c13.49 54.81 63.04 95.59 121.96 95.59s108.47-40.78 121.96-95.59h172.55c16.57 0 30-13.43 30-30s-13.43-30-30-30z m-294.51 95.59c-36.17 0-65.59-29.42-65.59-65.59s29.42-65.59 65.59-65.59 65.59 29.42 65.59 65.59-29.42 65.59-65.59 65.59z" /></svg>