<?xml version="1.0" standalone="no"?><!DOCTYPE svg PUBLIC "-//W3C//DTD SVG 1.1//EN" "http://www.w3.org/Graphics/SVG/1.1/DTD/svg11.dtd"><svg class="icon" width="200px" height="200.00px" viewBox="0 0 1024 1024" version="1.1" xmlns="http://www.w3.org/2000/svg"><path fill="#333333" d="M830.59 82H193.41C131.98 82 82 131.98 82 193.41v637.18C82 892.02 131.98 942 193.41 942h637.18C892.02 942 942 892.02 942 830.59V193.41C942 131.98 892.02 82 830.59 82zM882 830.59c0 28.35-23.06 51.41-51.41 51.41H193.41c-28.35 0-51.41-23.06-51.41-51.41V193.41c0-28.35 23.06-51.41 51.41-51.41h637.18c28.35 0 51.41 23.06 51.41 51.41v637.18zM212.02 377.34c0-16.57 13.43-30 30-30h269.31c16.57 0 30 13.43 30 30s-13.43 30-30 30H242.02c-16.57 0-30-13.43-30-30z m598.22 0c0 16.57-13.43 30-30 30H670.12v51.11c0 16.57-13.43 30-30 30s-30-13.43-30-30V296.24c0-16.57 13.43-30 30-30s30 13.43 30 30v51.11h110.12c16.57 0 30 13.43 30 30z m0 279.81c0 16.57-13.43 30-30 30H441.68c-16.57 0-30-13.43-30-30s13.43-30 30-30h338.56c16.57 0 30 13.43 30 30z m-473.37-81.11v162.21c0 16.57-13.43 30-30 30s-30-13.43-30-30v-51.11h-34.85c-16.57 0-30-13.43-30-30s13.43-30 30-30h34.85v-51.11c0-16.57 13.43-30 30-30s30 13.43 30 30z" /></svg>