<?xml version="1.0" standalone="no"?><!DOCTYPE svg PUBLIC "-//W3C//DTD SVG 1.1//EN" "http://www.w3.org/Graphics/SVG/1.1/DTD/svg11.dtd"><svg class="icon" width="200px" height="200.00px" viewBox="0 0 1024 1024" version="1.1" xmlns="http://www.w3.org/2000/svg"><path fill="#333333" d="M886.12 630.77h-0.47V142.18c0-45.31-36.86-82.17-82.17-82.17H347.83c-39.04 0-71.78 27.37-80.1 63.92h-47.19c-45.31 0-82.17 36.86-82.17 82.17v424.67h-0.47c-39.63 0-71.88 32.25-71.88 71.88v142.38c0 67.8 55.16 122.96 122.96 122.96h646.05c67.8 0 122.96-55.16 122.96-122.96V702.65c0-39.63-32.25-71.88-71.88-71.88zM347.83 120h455.64c12.23 0 22.17 9.95 22.17 22.17v488.59H631.48c-12.4 0-23.53 7.63-27.99 19.2-14.48 37.54-51.25 62.76-91.49 62.76s-77.01-25.22-91.49-62.76c-4.46-11.57-15.59-19.2-27.99-19.2h-66.87V160.49c0.47-2.11 0.73-4.31 0.73-6.56s-0.26-4.45-0.73-6.56v-5.18c0-12.23 9.95-22.17 22.17-22.17z m-149.47 86.09c0-12.23 9.95-22.17 22.17-22.17h45.12v446.85h-67.3V206.1zM898 845.03c0 34.72-28.24 62.96-62.96 62.96H188.97c-34.72 0-62.96-28.25-62.96-62.96V702.65c0-6.55 5.33-11.88 11.88-11.88h235.57c11.64 21.22 28.02 39.49 48.14 53.55 26.6 18.58 57.86 28.41 90.41 28.41s63.81-9.82 90.41-28.41c20.12-14.06 36.5-32.33 48.14-53.55h235.57c6.55 0 11.88 5.33 11.88 11.88v142.38zM404.02 254.61c0-16.57 13.43-30 30-30h285.96c16.57 0 30 13.43 30 30s-13.43 30-30 30H434.02c-16.57 0-30-13.43-30-30z m0 127.84c0-16.57 13.43-30 30-30h285.96c16.57 0 30 13.43 30 30s-13.43 30-30 30H434.02c-16.57 0-30-13.43-30-30z m0 127.84c0-16.57 13.43-30 30-30h285.96c16.57 0 30 13.43 30 30s-13.43 30-30 30H434.02c-16.57 0-30-13.43-30-30z" /></svg>